<svg version="1.1" xmlns="http://www.w3.org/2000/svg" viewBox="0 0 1300.2971386503073 971.5985200399557" width="1300.2971386503073" height="971.5985200399557">
  <!-- svg-source:excalidraw -->
  
  <defs>
    <style>
      @font-face {
        font-family: "Virgil";
        src: url("https://excalidraw.com/Virgil.woff2");
      }
      @font-face {
        font-family: "Cascadia";
        src: url("https://excalidraw.com/Cascadia.woff2");
      }
    </style>
  </defs>
  <rect x="0" y="0" width="1300.2971386503073" height="971.5985200399557" fill="#ffffff"></rect><g stroke-opacity="0.5" fill-opacity="0.5" transform="translate(479.84229137853345 19.812839900973472) rotate(0 399.6589719688849 30.54009002132119)" stroke="none"><path fill="#8bd490" d="M -0.43,-9.92 Q -0.43,-9.92 5.90,-10.09 12.25,-10.27 19.61,-11.04 26.97,-11.80 31.36,-12.26 35.74,-12.71 40.11,-12.84 44.48,-12.96 49.82,-13.08 55.16,-13.19 59.62,-13.02 64.09,-12.86 70.28,-12.97 76.48,-13.08 81.11,-13.12 85.74,-13.16 91.52,-13.16 97.31,-13.16 103.36,-13.60 109.40,-14.04 114.21,-14.23 119.02,-14.41 124.06,-13.88 129.11,-13.34 134.47,-11.32 139.82,-9.30 142.00,-3.58 144.18,2.13 142.80,6.27 141.42,10.41 138.03,13.14 134.64,15.87 128.58,17.63 122.53,19.39 116.49,20.76 110.46,22.13 105.37,22.79 100.29,23.45 95.55,23.69 90.80,23.93 84.36,23.94 77.91,23.95 72.25,23.90 66.58,23.84 60.53,23.35 54.49,22.86 49.46,22.56 44.42,22.26 39.52,21.96 34.62,21.66 28.49,20.97 22.35,20.28 17.12,19.99 11.90,19.70 7.53,19.46 3.17,19.23 9.19,15.94 15.22,12.65 14.20,17.63 13.18,22.60 10.91,17.72 8.64,12.84 13.74,11.34 18.83,9.83 24.05,8.94 29.28,8.05 34.24,7.48 39.21,6.91 44.21,7.19 49.20,7.46 55.34,7.85 61.48,8.24 67.75,8.68 74.02,9.12 79.26,9.45 84.50,9.79 88.82,9.58 93.14,9.38 98.55,9.10 103.95,8.82 110.16,8.60 116.36,8.38 121.61,8.25 126.86,8.11 131.28,7.94 135.69,7.77 141.30,7.23 146.91,6.68 152.36,6.56 157.82,6.45 162.14,6.07 166.46,5.69 172.36,5.51 178.26,5.33 182.69,5.10 187.12,4.87 192.73,4.81 198.33,4.75 204.71,4.78 211.09,4.80 217.61,5.16 224.12,5.53 230.44,5.98 236.75,6.44 242.49,6.72 248.22,6.99 253.36,7.30 258.49,7.60 263.50,8.04 268.50,8.48 274.89,8.96 281.28,9.44 286.38,10.02 291.47,10.61 295.79,11.10 300.11,11.59 304.44,12.33 308.76,13.07 313.81,13.26 318.85,13.45 324.29,13.41 329.73,13.36 334.25,13.71 338.77,14.05 343.15,14.00 347.54,13.95 353.65,13.59 359.76,13.24 365.49,12.76 371.21,12.29 375.53,11.81 379.85,11.33 385.15,10.69 390.44,10.05 395.95,9.17 401.46,8.28 406.36,7.52 411.25,6.75 415.98,6.21 420.71,5.67 425.49,5.60 430.26,5.53 435.95,5.81 441.63,6.08 446.36,6.55 451.10,7.03 455.46,7.22 459.82,7.42 464.87,7.75 469.93,8.08 474.50,8.21 479.08,8.34 483.90,8.37 488.71,8.40 493.39,8.42 498.07,8.44 503.07,8.63 508.06,8.83 512.59,9.33 517.12,9.84 522.02,10.34 526.92,10.84 531.51,11.37 536.11,11.91 542.07,12.69 548.04,13.47 552.53,13.69 557.02,13.91 561.90,13.98 566.78,14.04 571.64,14.06 576.50,14.08 581.60,14.10 586.70,14.12 591.44,14.10 596.19,14.07 600.97,14.07 605.75,14.07 611.15,14.10 616.55,14.13 621.99,14.33 627.42,14.54 631.94,16.43 636.46,18.32 639.92,24.37 643.38,30.43 640.41,37.29 637.44,44.15 633.42,46.08 629.41,48.01 624.42,48.55 619.42,49.09 613.98,49.18 608.54,49.28 601.59,49.20 594.65,49.13 586.60,49.00 578.55,48.86 571.93,48.92 565.31,48.98 560.48,49.34 555.65,49.69 549.56,49.96 543.47,50.23 536.45,50.60 529.43,50.97 521.01,51.03 512.60,51.09 503.97,51.00 495.34,50.90 487.74,50.88 480.14,50.87 473.21,50.83 466.29,50.79 460.71,50.88 455.14,50.97 449.96,51.33 444.79,51.70 440.33,52.31 435.87,52.93 430.73,53.61 425.59,54.30 421.19,54.75 416.79,55.21 410.71,55.61 404.63,56.02 398.83,56.35 393.03,56.68 387.14,57.09 381.25,57.51 374.17,57.51 367.09,57.52 362.37,57.58 357.65,57.65 350.42,56.93 343.18,56.22 337.55,55.38 331.92,54.54 327.02,54.14 322.12,53.74 315.47,53.55 308.81,53.36 303.30,53.35 297.79,53.33 292.72,53.32 287.66,53.30 282.41,53.30 277.16,53.30 272.08,53.30 266.99,53.29 261.27,53.48 255.54,53.67 250.52,53.74 245.51,53.81 241.09,53.84 236.67,53.87 230.25,53.56 223.84,53.24 219.33,53.36 214.82,53.47 208.34,53.36 201.85,53.24 197.10,53.05 192.35,52.86 187.42,52.77 182.50,52.67 177.00,52.62 171.50,52.56 166.38,52.21 161.26,51.85 155.53,51.29 149.79,50.72 144.61,50.35 139.44,49.97 134.89,49.80 130.33,49.64 124.86,49.24 119.39,48.85 114.91,48.62 110.44,48.39 105.72,48.34 101.00,48.28 94.55,48.08 88.10,47.88 83.77,47.63 79.45,47.37 74.75,47.38 70.04,47.38 64.97,47.74 59.90,48.09 55.48,48.21 51.06,48.33 46.37,48.69 41.69,49.06 36.56,49.68 31.43,50.30 26.75,50.99 22.07,51.67 17.77,52.24 13.46,52.82 9.07,52.55 4.69,52.29 -2.28,49.22 -9.26,46.15 -12.09,42.19 -14.92,38.23 -15.21,37.33 -15.50,36.44 -15.67,34.58 -15.84,32.73 -15.57,30.88 -15.29,29.04 -14.58,27.32 -13.87,25.60 -12.77,24.09 -11.67,22.59 -10.24,21.40 -8.81,20.20 -7.14,19.38 -5.47,18.56 -3.65,18.17 -1.83,17.77 0.03,17.82 1.89,17.88 3.68,18.37 5.48,18.87 7.10,19.78 8.73,20.69 10.09,21.97 11.45,23.24 12.46,24.80 13.48,26.37 14.09,28.13 14.70,29.88 14.15,34.65 13.60,39.42 10.85,35.93 8.11,32.44 11.20,35.39 14.29,38.33 18.55,37.70 22.81,37.07 27.71,37.98 32.61,38.89 37.52,38.55 42.44,38.21 47.01,38.43 51.58,38.64 55.84,38.64 60.09,38.65 64.50,39.08 68.91,39.51 73.93,39.52 78.94,39.53 83.44,39.67 87.94,39.80 93.06,39.83 98.17,39.85 102.45,39.88 106.72,39.91 111.76,40.18 116.79,40.46 121.40,40.35 126.00,40.24 130.87,40.23 135.73,40.23 140.23,40.22 144.72,40.21 150.41,40.09 156.11,39.97 161.61,39.76 167.12,39.56 172.61,39.42 178.11,39.27 183.25,39.25 188.39,39.23 193.34,39.20 198.30,39.18 202.80,39.08 207.31,38.98 212.98,37.99 218.65,36.99 223.80,36.46 228.95,35.93 234.33,35.41 239.71,34.90 245.26,34.44 250.80,33.99 255.30,33.78 259.79,33.57 264.27,33.56 268.74,33.56 273.72,33.55 278.71,33.54 283.28,33.67 287.84,33.80 292.25,33.93 296.65,34.05 302.08,34.22 307.51,34.40 311.80,34.52 316.10,34.64 320.62,34.62 325.14,34.60 330.29,34.59 335.43,34.58 340.05,34.60 344.66,34.62 349.56,34.64 354.46,34.66 359.72,35.14 364.98,35.62 370.26,36.21 375.54,36.81 380.91,36.75 386.27,36.70 391.02,36.47 395.77,36.25 400.88,35.65 405.98,35.05 411.08,34.97 416.19,34.88 420.42,34.36 424.65,33.84 429.66,33.18 434.67,32.53 439.82,32.24 444.97,31.94 449.29,31.69 453.62,31.44 458.52,31.35 463.41,31.26 467.94,31.75 472.47,32.24 477.05,32.76 481.63,33.27 487.04,33.76 492.44,34.25 497.61,34.62 502.78,34.99 507.48,35.26 512.17,35.54 518.05,35.83 523.92,36.11 528.67,36.21 533.43,36.32 538.01,36.30 542.60,36.29 548.77,36.06 554.93,35.83 560.36,35.00 565.79,34.18 571.15,33.65 576.51,33.11 581.09,33.03 585.66,32.95 591.06,32.37 596.46,31.79 601.12,31.43 605.77,31.07 610.44,31.03 615.10,30.99 620.31,31.74 625.52,32.48 630.48,32.78 635.44,33.08 640.05,33.18 644.66,33.29 649.56,33.30 654.45,33.31 659.11,33.30 663.76,33.30 668.52,33.27 673.29,33.25 678.98,33.86 684.67,34.48 688.98,34.93 693.28,35.38 698.30,35.93 703.32,36.49 708.28,36.99 713.24,37.50 717.57,37.65 721.89,37.80 726.73,37.74 731.57,37.68 737.09,37.72 742.60,37.76 748.35,37.80 754.11,37.83 759.48,37.84 764.86,37.84 770.21,37.86 775.55,37.89 779.85,37.61 784.15,37.33 788.58,37.27 793.01,37.21 796.28,37.19 799.56,37.16 801.40,37.39 803.25,37.61 804.99,38.27 806.74,38.93 808.27,39.99 809.80,41.05 811.04,42.44 812.27,43.84 813.14,45.48 814.00,47.13 814.45,48.94 814.89,50.75 814.89,52.61 814.89,54.48 814.45,56.28 814.00,58.09 813.14,59.74 812.27,61.39 811.03,62.78 809.80,64.18 808.27,65.24 806.73,66.29 804.99,66.95 803.25,67.61 801.40,67.84 799.55,68.06 794.62,65.49 789.68,62.92 786.17,65.46 782.67,68.00 777.37,68.57 772.08,69.14 767.43,69.32 762.78,69.49 757.85,69.93 752.92,70.37 746.99,70.61 741.05,70.84 736.16,70.87 731.26,70.90 725.41,70.65 719.56,70.41 715.15,70.11 710.75,69.81 704.91,69.54 699.07,69.28 694.25,69.08 689.42,68.89 684.94,68.88 680.45,68.87 675.55,69.27 670.65,69.66 666.05,69.99 661.44,70.33 656.98,70.47 652.53,70.62 646.91,71.04 641.30,71.46 636.70,71.96 632.09,72.45 627.62,72.72 623.14,73.00 617.21,73.40 611.29,73.81 606.10,73.86 600.91,73.91 595.76,73.87 590.60,73.83 586.22,73.78 581.84,73.72 577.05,73.70 572.27,73.69 567.11,73.69 561.95,73.70 557.02,73.71 552.09,73.72 547.49,73.71 542.89,73.70 538.11,73.71 533.32,73.71 528.95,73.89 524.57,74.07 520.21,74.08 515.84,74.09 511.40,74.10 506.97,74.11 501.73,74.11 496.49,74.11 491.29,74.07 486.10,74.03 481.73,74.11 477.36,74.20 470.91,74.70 464.46,75.21 459.44,75.57 454.42,75.93 448.66,76.21 442.90,76.49 437.83,76.68 432.76,76.86 427.20,76.94 421.63,77.02 416.48,76.83 411.33,76.63 406.22,76.32 401.11,76.02 396.25,75.77 391.39,75.53 386.67,74.97 381.95,74.40 375.88,73.42 369.81,72.43 365.11,71.73 360.41,71.04 355.45,70.61 350.49,70.17 345.77,70.15 341.04,70.13 336.43,70.09 331.83,70.05 327.52,70.52 323.22,71.00 317.96,71.81 312.69,72.63 307.50,73.24 302.30,73.86 297.42,73.52 292.53,73.18 287.91,72.97 283.28,72.75 278.14,72.62 273.00,72.49 268.16,71.96 263.32,71.42 258.25,70.71 253.18,70.00 248.08,69.20 242.98,68.40 238.21,67.98 233.45,67.57 228.43,67.17 223.41,66.78 218.68,66.53 213.95,66.29 209.14,65.68 204.33,65.07 199.33,64.55 194.34,64.03 190.07,63.90 185.81,63.76 179.93,63.23 174.05,62.70 171.67,62.06 169.30,61.41 167.26,60.04 165.22,58.67 163.72,56.72 162.22,54.77 161.43,52.45 160.63,50.12 160.62,47.66 160.61,45.21 161.38,42.87 162.15,40.54 163.63,38.58 165.11,36.61 167.14,35.22 169.16,33.83 171.53,33.16 173.89,32.49 176.35,32.61 178.80,32.73 181.09,33.63 183.38,34.53 185.26,36.11 187.14,37.69 188.42,39.79 189.70,41.89 190.24,44.29 190.78,46.69 190.53,49.14 190.27,51.58 189.25,53.82 188.23,56.05 186.55,57.85 184.87,59.64 182.70,60.80 180.53,61.96 178.11,62.37 175.69,62.78 173.26,62.40 170.83,62.01 168.65,60.87 166.48,59.73 164.78,57.95 163.08,56.18 162.04,53.95 160.99,51.73 160.71,49.28 160.44,46.84 160.95,44.44 161.47,42.03 162.73,39.92 163.98,37.81 165.85,36.21 167.72,34.61 169.99,33.69 172.27,32.77 174.73,32.62 177.18,32.48 177.18,32.48 177.18,32.48 178.48,32.74 179.78,32.99 184.43,33.22 189.08,33.45 194.52,33.89 199.96,34.33 204.29,34.78 208.62,35.24 213.19,35.90 217.76,36.55 222.77,36.81 227.78,37.08 232.25,37.44 236.71,37.80 240.97,38.18 245.23,38.57 250.54,39.31 255.86,40.06 261.69,40.63 267.52,41.19 272.87,41.66 278.22,42.12 282.54,42.29 286.86,42.46 291.63,42.66 296.41,42.85 300.99,42.84 305.58,42.83 310.52,42.23 315.46,41.63 320.60,40.92 325.73,40.21 331.87,40.09 338.01,39.98 342.62,40.17 347.23,40.37 352.01,40.64 356.79,40.92 362.14,41.69 367.49,42.45 373.85,43.51 380.21,44.57 385.11,45.33 390.02,46.09 394.53,46.53 399.05,46.98 404.48,47.21 409.90,47.45 415.62,47.76 421.35,48.08 425.81,47.96 430.27,47.85 435.61,47.51 440.96,47.17 447.47,46.59 453.98,46.00 458.56,45.71 463.14,45.42 469.23,44.83 475.32,44.23 480.71,43.98 486.10,43.73 491.29,43.68 496.49,43.64 501.73,43.64 506.97,43.64 511.40,43.65 515.84,43.66 520.16,43.67 524.49,43.68 528.90,43.56 533.32,43.43 538.11,43.44 542.89,43.45 547.49,43.44 552.09,43.43 557.02,43.44 561.95,43.45 567.11,43.45 572.27,43.46 577.05,43.44 581.84,43.43 587.62,43.37 593.40,43.31 598.11,43.27 602.83,43.24 607.76,43.15 612.70,43.06 618.38,42.66 624.06,42.25 628.36,41.82 632.65,41.39 637.94,40.85 643.23,40.31 648.49,39.96 653.76,39.62 658.05,39.62 662.35,39.62 666.88,39.16 671.42,38.70 676.69,38.56 681.96,38.43 687.10,38.48 692.24,38.53 697.38,38.87 702.52,39.21 706.82,39.41 711.12,39.62 715.50,39.92 719.89,40.21 725.53,40.36 731.17,40.51 736.36,40.44 741.55,40.37 746.46,40.15 751.37,39.92 756.68,39.44 761.99,38.96 766.87,38.57 771.75,38.18 777.81,37.44 783.86,36.70 788.25,36.52 792.64,36.34 797.32,36.78 802.00,37.23 805.63,39.63 809.26,42.03 804.41,39.59 799.55,37.16 801.40,37.39 803.25,37.61 804.99,38.27 806.73,38.93 808.27,39.99 809.80,41.05 811.03,42.44 812.27,43.83 813.14,45.48 814.00,47.13 814.45,48.94 814.89,50.75 814.89,52.61 814.89,54.47 814.45,56.28 814.00,58.09 813.14,59.74 812.27,61.39 811.04,62.78 809.80,64.18 808.27,65.23 806.74,66.29 804.99,66.95 803.25,67.61 801.40,67.84 799.56,68.06 797.60,68.05 795.65,68.03 791.08,67.97 786.52,67.91 781.03,68.24 775.55,68.57 770.21,68.59 764.86,68.62 759.48,68.62 754.11,68.62 748.36,68.66 742.61,68.69 737.84,68.74 733.08,68.79 728.33,68.87 723.59,68.95 718.40,68.70 713.21,68.44 707.99,67.91 702.77,67.37 698.33,66.96 693.89,66.54 688.48,65.95 683.07,65.37 678.18,64.78 673.29,64.20 668.52,64.18 663.76,64.15 659.11,64.15 654.45,64.14 648.93,64.14 643.40,64.15 638.46,63.94 633.52,63.72 628.59,63.30 623.66,62.89 619.37,62.13 615.09,61.37 610.77,61.35 606.45,61.34 601.67,61.69 596.88,62.04 591.38,62.62 585.89,63.20 581.15,63.30 576.41,63.40 571.78,64.03 567.15,64.67 562.56,65.42 557.97,66.17 552.61,66.53 547.26,66.89 542.31,66.88 537.36,66.86 532.78,66.84 528.21,66.81 521.94,66.57 515.68,66.33 509.67,66.09 503.67,65.84 499.22,65.65 494.76,65.45 489.60,64.93 484.44,64.41 479.28,63.86 474.12,63.31 469.32,62.63 464.52,61.95 460.18,61.97 455.84,61.99 451.10,62.33 446.37,62.67 441.89,62.99 437.42,63.31 433.06,63.90 428.70,64.48 423.22,65.12 417.74,65.76 413.06,65.72 408.38,65.68 403.27,66.35 398.16,67.02 393.88,67.22 389.61,67.42 384.17,67.65 378.74,67.88 374.42,67.58 370.09,67.28 364.22,66.58 358.35,65.88 354.01,65.78 349.67,65.69 344.40,65.72 339.13,65.75 334.60,65.75 330.06,65.76 325.53,65.74 321.00,65.71 316.67,65.65 312.33,65.59 307.97,65.28 303.60,64.97 299.08,64.94 294.55,64.91 289.69,64.73 284.84,64.55 280.19,64.39 275.54,64.23 270.60,64.24 265.66,64.25 260.60,64.29 255.53,64.33 250.53,64.72 245.53,65.12 240.05,65.68 234.56,66.24 229.02,66.84 223.48,67.45 218.43,68.41 213.38,69.38 208.09,69.72 202.80,70.06 197.88,70.06 192.97,70.05 188.28,70.03 183.60,70.00 179.17,70.03 174.75,70.05 169.70,70.24 164.64,70.44 159.81,70.67 154.97,70.89 150.67,71.02 146.36,71.15 141.97,71.13 137.57,71.12 133.22,70.81 128.87,70.51 122.54,70.90 116.21,71.30 111.46,71.11 106.71,70.93 102.44,70.95 98.17,70.98 93.49,70.99 88.81,71.00 83.86,70.85 78.90,70.69 74.10,70.67 69.30,70.66 63.15,70.32 57.00,69.97 52.23,69.93 47.46,69.88 43.16,69.72 38.85,69.56 34.05,69.55 29.24,69.54 24.90,68.96 20.57,68.38 15.78,67.90 10.99,67.43 6.15,66.23 1.30,65.02 -2.75,62.09 -6.81,59.16 -10.01,56.12 -13.21,53.08 -14.45,48.77 -15.69,44.47 -15.77,40.02 -15.85,35.58 -15.14,31.26 -14.42,26.94 -14.96,31.69 -15.50,36.44 -15.67,34.58 -15.84,32.73 -15.57,30.89 -15.29,29.04 -14.58,27.32 -13.87,25.60 -12.77,24.09 -11.67,22.59 -10.24,21.40 -8.81,20.20 -7.14,19.38 -5.47,18.56 -3.65,18.17 -1.83,17.77 0.03,17.82 1.89,17.88 3.68,18.37 5.48,18.87 7.10,19.78 8.73,20.69 10.09,21.97 11.45,23.24 12.46,24.80 13.48,26.36 14.09,28.12 14.70,29.88 12.47,28.77 10.24,27.67 5.11,24.68 -0.00,21.70 4.44,22.32 8.90,22.94 13.26,22.46 17.62,21.98 21.90,21.36 26.17,20.74 31.18,20.30 36.18,19.86 40.46,19.40 44.73,18.95 49.77,18.81 54.81,18.67 59.72,18.37 64.63,18.08 70.72,17.89 76.82,17.70 81.61,18.04 86.40,18.38 91.30,18.67 96.19,18.97 102.37,19.01 108.56,19.05 115.35,19.50 122.14,19.95 126.60,20.37 131.05,20.78 136.45,20.89 141.84,21.00 147.44,21.30 153.05,21.59 157.72,21.99 162.39,22.39 166.98,22.83 171.57,23.27 177.42,23.28 183.27,23.30 190.08,23.74 196.89,24.17 201.82,24.51 206.75,24.86 211.57,24.93 216.39,25.00 221.49,25.14 226.58,25.28 231.60,25.65 236.62,26.03 240.96,26.04 245.30,26.06 249.93,26.03 254.56,26.01 260.78,25.70 266.99,25.39 272.08,25.38 277.17,25.38 282.43,25.38 287.69,25.38 292.83,25.38 297.97,25.38 302.28,25.48 306.60,25.57 312.56,25.92 318.52,26.27 324.69,26.54 330.85,26.81 336.26,27.58 341.66,28.35 347.03,29.04 352.41,29.73 357.22,30.03 362.04,30.33 367.98,30.28 373.92,30.23 379.85,30.06 385.78,29.89 392.09,29.18 398.40,28.46 403.59,28.31 408.78,28.16 415.78,27.45 422.78,26.74 429.10,26.19 435.42,25.65 440.03,25.40 444.64,25.15 449.89,25.21 455.13,25.28 460.71,25.37 466.29,25.46 473.21,25.42 480.13,25.38 487.69,25.34 495.26,25.31 503.75,25.13 512.25,24.95 519.42,24.52 526.60,24.09 534.22,23.46 541.84,22.82 547.80,22.46 553.76,22.10 559.39,21.72 565.03,21.34 571.29,21.17 577.55,20.99 585.98,20.44 594.42,19.89 600.60,19.58 606.78,19.27 612.65,19.72 618.51,20.16 615.99,26.47 613.46,32.79 616.01,38.58 618.55,44.37 614.06,44.38 609.57,44.39 605.09,44.41 600.61,44.43 595.35,44.39 590.09,44.35 585.01,44.37 579.92,44.39 574.57,44.39 569.22,44.38 563.85,44.24 558.48,44.10 553.82,43.88 549.15,43.66 543.29,43.17 537.43,42.67 532.12,41.97 526.81,41.28 522.35,40.63 517.89,39.99 513.11,39.69 508.33,39.39 503.20,38.87 498.06,38.36 493.36,38.37 488.66,38.39 483.47,38.36 478.29,38.34 472.57,38.20 466.85,38.06 461.52,37.48 456.20,36.90 451.90,36.65 447.60,36.41 442.44,36.02 437.28,35.64 432.42,35.42 427.56,35.19 422.34,35.35 417.12,35.51 412.13,36.21 407.13,36.90 401.09,37.87 395.04,38.84 389.52,39.70 384.00,40.57 379.24,41.18 374.48,41.79 368.12,42.40 361.77,43.01 354.66,43.48 347.54,43.95 343.25,43.90 338.96,43.84 334.32,43.38 329.68,42.92 324.35,42.84 319.02,42.77 314.73,42.54 310.43,42.31 305.25,41.65 300.07,41.00 294.84,40.24 289.61,39.48 283.26,38.72 276.90,37.95 272.38,37.44 267.85,36.94 262.19,36.31 256.53,35.69 251.54,35.42 246.55,35.14 241.20,34.95 235.86,34.77 229.34,34.50 222.82,34.24 216.96,34.22 211.10,34.19 204.76,34.22 198.41,34.25 193.30,34.30 188.19,34.36 183.36,34.67 178.52,34.98 174.04,35.08 169.55,35.18 163.80,35.63 158.04,36.09 153.56,36.16 149.08,36.23 143.66,36.80 138.24,37.36 133.71,37.42 129.19,37.48 124.22,37.69 119.25,37.91 113.72,37.93 108.19,37.94 103.59,38.28 98.99,38.62 94.15,38.62 89.32,38.62 84.49,38.65 79.65,38.69 73.11,38.55 66.57,38.41 60.49,38.22 54.41,38.04 48.92,37.56 43.43,37.09 38.85,37.36 34.27,37.63 29.57,38.45 24.87,39.27 20.47,40.04 16.06,40.80 9.82,40.99 3.58,41.18 -2.28,39.49 -8.14,37.80 -11.22,33.81 -14.30,29.82 -14.76,24.21 -15.22,18.61 -14.34,14.40 -13.46,10.19 -12.64,5.82 -11.82,1.44 -8.09,-3.01 -4.37,-7.48 1.24,-8.60 6.87,-9.73 11.44,-9.39 16.01,-9.05 20.94,-8.61 25.87,-8.16 31.20,-7.48 36.53,-6.79 41.46,-6.38 46.40,-5.97 51.65,-5.68 56.91,-5.39 61.74,-5.02 66.58,-4.65 72.25,-4.70 77.91,-4.75 84.35,-4.74 90.80,-4.73 95.73,-4.77 100.66,-4.80 105.56,-5.79 110.45,-6.79 116.32,-8.22 122.19,-9.66 119.52,-4.12 116.85,1.41 118.98,7.51 121.11,13.61 116.71,13.17 112.30,12.72 107.63,13.04 102.96,13.35 96.27,13.37 89.57,13.40 84.27,13.35 78.97,13.30 73.46,13.11 67.96,12.92 63.05,12.62 58.13,12.33 52.98,11.73 47.82,11.13 42.85,10.75 37.87,10.37 32.76,9.74 27.64,9.11 20.37,9.13 13.10,9.16 6.76,9.54 0.43,9.92 -0.75,9.83 -1.95,9.73 -3.08,9.36 -4.22,8.98 -5.24,8.35 -6.25,7.71 -7.08,6.85 -7.91,5.99 -8.52,4.95 -9.12,3.92 -9.46,2.77 -9.79,1.62 -9.84,0.43 -9.90,-0.76 -9.66,-1.93 -9.43,-3.11 -8.92,-4.19 -8.41,-5.27 -7.65,-6.20 -6.90,-7.13 -5.95,-7.86 -4.99,-8.58 -3.89,-9.05 -2.79,-9.53 -1.61,-9.72 -0.43,-9.92 -0.43,-9.92 L -0.43,-9.92 Z"></path></g><g transform="translate(483.0895918731271 178.13475455843616) rotate(0 353.5 53.5)"><text x="0" y="14.399999999999999" font-family="Virgil, Segoe UI Emoji" font-size="17.012151360928577px" fill="#495057" text-anchor="start" style="white-space: pre;" direction="ltr">createParser = (model, config) -&gt; # returns a parser base on your relational model</text><text x="0" y="35.8" font-family="Virgil, Segoe UI Emoji" font-size="17.012151360928577px" fill="#495057" text-anchor="start" style="white-space: pre;" direction="ltr"></text><text x="0" y="57.19999999999999" font-family="Virgil, Segoe UI Emoji" font-size="17.012151360928577px" fill="#495057" text-anchor="start" style="white-space: pre;" direction="ltr">    returns parse(query, safeGuard) -&gt; </text><text x="0" y="78.6" font-family="Virgil, Segoe UI Emoji" font-size="17.012151360928577px" fill="#495057" text-anchor="start" style="white-space: pre;" direction="ltr"></text><text x="0" y="100" font-family="Virgil, Segoe UI Emoji" font-size="17.012151360928577px" fill="#495057" text-anchor="start" style="white-space: pre;" direction="ltr">        returns result</text></g><g transform="translate(493.8073746323439 448.5385626879) rotate(0 115 10.5)"><text x="0" y="15" font-family="Virgil, Segoe UI Emoji" font-size="17.012151360928577px" fill="#495057" text-anchor="start" style="white-space: pre;" direction="ltr">popSql = (parse, config) -&gt; </text></g><g transform="translate(529.9060472445735 509.99140545870034) rotate(0 132 85.5)"><text x="0" y="15.375" font-family="Virgil, Segoe UI Emoji" font-size="17.012151360928577px" fill="#495057" text-anchor="start" style="white-space: pre;" direction="ltr">returns</text><text x="0" y="36.75" font-family="Virgil, Segoe UI Emoji" font-size="17.012151360928577px" fill="#495057" text-anchor="start" style="white-space: pre;" direction="ltr">    read = (query, options) -&gt; </text><text x="0" y="58.125" font-family="Virgil, Segoe UI Emoji" font-size="17.012151360928577px" fill="#495057" text-anchor="start" style="white-space: pre;" direction="ltr"></text><text x="0" y="79.5" font-family="Virgil, Segoe UI Emoji" font-size="17.012151360928577px" fill="#495057" text-anchor="start" style="white-space: pre;" direction="ltr"></text><text x="0" y="100.875" font-family="Virgil, Segoe UI Emoji" font-size="17.012151360928577px" fill="#495057" text-anchor="start" style="white-space: pre;" direction="ltr"></text><text x="0" y="122.25" font-family="Virgil, Segoe UI Emoji" font-size="17.012151360928577px" fill="#495057" text-anchor="start" style="white-space: pre;" direction="ltr"></text><text x="0" y="143.625" font-family="Virgil, Segoe UI Emoji" font-size="17.012151360928577px" fill="#495057" text-anchor="start" style="white-space: pre;" direction="ltr"></text><text x="0" y="165" font-family="Virgil, Segoe UI Emoji" font-size="17.012151360928577px" fill="#495057" text-anchor="start" style="white-space: pre;" direction="ltr">    write = (delta, options) -&gt; </text></g><g transform="translate(534.8297033938093 918.5985200399557) rotate(0 134.5 21.5)"><text x="0" y="14.5" font-family="Virgil, Segoe UI Emoji" font-size="17.012151360928577px" fill="#495057" text-anchor="start" style="white-space: pre;" direction="ltr">returns</text><text x="0" y="36" font-family="Virgil, Segoe UI Emoji" font-size="17.012151360928577px" fill="#495057" text-anchor="start" style="white-space: pre;" direction="ltr">    read = (query, options) -&gt;  </text></g><g transform="translate(493.8073746323439 852.5385626879) rotate(0 130 10.5)"><text x="0" y="15" font-family="Virgil, Segoe UI Emoji" font-size="17.012151360928577px" fill="#495057" text-anchor="start" style="white-space: pre;" direction="ltr">popRamda = (parse, config) -&gt; </text></g><g transform="translate(482.7712189587046 10) rotate(0 57.5 16)"><text x="0" y="22" font-family="Virgil, Segoe UI Emoji" font-size="24.979980468749968px" fill="#000000" text-anchor="start" style="white-space: pre;" direction="ltr">POPSIQL</text></g><g transform="translate(10 28.506661044356747) rotate(0 193.5 311)"><text x="0" y="12.277777777777779" font-family="Virgil, Segoe UI Emoji" font-size="13.762386258975821px" fill="#8bd490" text-anchor="start" style="white-space: pre;" direction="ltr">Model:</text><text x="0" y="29.555555555555557" font-family="Virgil, Segoe UI Emoji" font-size="13.762386258975821px" fill="#8bd490" text-anchor="start" style="white-space: pre;" direction="ltr">   Client: {projects: 'Project'}</text><text x="0" y="46.833333333333336" font-family="Virgil, Segoe UI Emoji" font-size="13.762386258975821px" fill="#8bd490" text-anchor="start" style="white-space: pre;" direction="ltr">   Project: {client: 'Client', owner: 'User'}</text><text x="0" y="64.11111111111111" font-family="Virgil, Segoe UI Emoji" font-size="13.762386258975821px" fill="#8bd490" text-anchor="start" style="white-space: pre;" direction="ltr">   User: {projects: 'Project'}</text><text x="0" y="81.38888888888889" font-family="Virgil, Segoe UI Emoji" font-size="13.762386258975821px" fill="#8bd490" text-anchor="start" style="white-space: pre;" direction="ltr"></text><text x="0" y="98.66666666666667" font-family="Virgil, Segoe UI Emoji" font-size="13.762386258975821px" fill="#8bd490" text-anchor="start" style="white-space: pre;" direction="ltr"></text><text x="0" y="115.94444444444446" font-family="Virgil, Segoe UI Emoji" font-size="13.762386258975821px" fill="#8bd490" text-anchor="start" style="white-space: pre;" direction="ltr">Query:</text><text x="0" y="133.22222222222223" font-family="Virgil, Segoe UI Emoji" font-size="13.762386258975821px" fill="#8bd490" text-anchor="start" style="white-space: pre;" direction="ltr"></text><text x="0" y="150.5" font-family="Virgil, Segoe UI Emoji" font-size="13.762386258975821px" fill="#8bd490" text-anchor="start" style="white-space: pre;" direction="ltr">   clients: _ {:name, archived: {eq: false}},</text><text x="0" y="167.77777777777777" font-family="Virgil, Segoe UI Emoji" font-size="13.762386258975821px" fill="#8bd490" text-anchor="start" style="white-space: pre;" direction="ltr">     projects: _ {:name, rate: {gt: 100}},</text><text x="0" y="185.05555555555557" font-family="Virgil, Segoe UI Emoji" font-size="13.762386258975821px" fill="#8bd490" text-anchor="start" style="white-space: pre;" direction="ltr">       owner: _ {:name}</text><text x="0" y="202.33333333333334" font-family="Virgil, Segoe UI Emoji" font-size="13.762386258975821px" fill="#8bd490" text-anchor="start" style="white-space: pre;" direction="ltr"></text><text x="0" y="219.61111111111111" font-family="Virgil, Segoe UI Emoji" font-size="13.762386258975821px" fill="#8bd490" text-anchor="start" style="white-space: pre;" direction="ltr">Parse result:</text><text x="0" y="236.8888888888889" font-family="Virgil, Segoe UI Emoji" font-size="13.762386258975821px" fill="#8bd490" text-anchor="start" style="white-space: pre;" direction="ltr"></text><text x="0" y="254.16666666666669" font-family="Virgil, Segoe UI Emoji" font-size="13.762386258975821px" fill="#8bd490" text-anchor="start" style="white-space: pre;" direction="ltr">   clients:</text><text x="0" y="271.44444444444446" font-family="Virgil, Segoe UI Emoji" font-size="13.762386258975821px" fill="#8bd490" text-anchor="start" style="white-space: pre;" direction="ltr">     entity: 'Client'</text><text x="0" y="288.72222222222223" font-family="Virgil, Segoe UI Emoji" font-size="13.762386258975821px" fill="#8bd490" text-anchor="start" style="white-space: pre;" direction="ltr">     key: 'clients'</text><text x="0" y="306" font-family="Virgil, Segoe UI Emoji" font-size="13.762386258975821px" fill="#8bd490" text-anchor="start" style="white-space: pre;" direction="ltr">     multiplicity: 'many'</text><text x="0" y="323.27777777777777" font-family="Virgil, Segoe UI Emoji" font-size="13.762386258975821px" fill="#8bd490" text-anchor="start" style="white-space: pre;" direction="ltr">     fields: ['name', 'archived']</text><text x="0" y="340.55555555555554" font-family="Virgil, Segoe UI Emoji" font-size="13.762386258975821px" fill="#8bd490" text-anchor="start" style="white-space: pre;" direction="ltr">     allFields: ['id', 'name', 'archived']</text><text x="0" y="357.83333333333337" font-family="Virgil, Segoe UI Emoji" font-size="13.762386258975821px" fill="#8bd490" text-anchor="start" style="white-space: pre;" direction="ltr">     where: {archived: {eq: false}, cid: {eq: '1'}}</text><text x="0" y="375.11111111111114" font-family="Virgil, Segoe UI Emoji" font-size="13.762386258975821px" fill="#8bd490" text-anchor="start" style="white-space: pre;" direction="ltr">     subs:</text><text x="0" y="392.3888888888889" font-family="Virgil, Segoe UI Emoji" font-size="13.762386258975821px" fill="#8bd490" text-anchor="start" style="white-space: pre;" direction="ltr">       projects:</text><text x="0" y="409.6666666666667" font-family="Virgil, Segoe UI Emoji" font-size="13.762386258975821px" fill="#8bd490" text-anchor="start" style="white-space: pre;" direction="ltr">         entity: 'Project'</text><text x="0" y="426.94444444444446" font-family="Virgil, Segoe UI Emoji" font-size="13.762386258975821px" fill="#8bd490" text-anchor="start" style="white-space: pre;" direction="ltr">         key: 'projects'</text><text x="0" y="444.22222222222223" font-family="Virgil, Segoe UI Emoji" font-size="13.762386258975821px" fill="#8bd490" text-anchor="start" style="white-space: pre;" direction="ltr">         multiplicity: 'many'</text><text x="0" y="461.5" font-family="Virgil, Segoe UI Emoji" font-size="13.762386258975821px" fill="#8bd490" text-anchor="start" style="white-space: pre;" direction="ltr">         fields: ['name', 'rate']</text><text x="0" y="478.7777777777778" font-family="Virgil, Segoe UI Emoji" font-size="13.762386258975821px" fill="#8bd490" text-anchor="start" style="white-space: pre;" direction="ltr">         allFields: ['id', 'name', 'rate', 'clientId', 'userId']</text><text x="0" y="496.0555555555556" font-family="Virgil, Segoe UI Emoji" font-size="13.762386258975821px" fill="#8bd490" text-anchor="start" style="white-space: pre;" direction="ltr">         where: {rate: {gt: 100}, cid: {eq: '1'}}</text><text x="0" y="513.3333333333334" font-family="Virgil, Segoe UI Emoji" font-size="13.762386258975821px" fill="#8bd490" text-anchor="start" style="white-space: pre;" direction="ltr">         relParentId: 'clientId'</text><text x="0" y="530.6111111111111" font-family="Virgil, Segoe UI Emoji" font-size="13.762386258975821px" fill="#8bd490" text-anchor="start" style="white-space: pre;" direction="ltr">         subs:</text><text x="0" y="547.8888888888889" font-family="Virgil, Segoe UI Emoji" font-size="13.762386258975821px" fill="#8bd490" text-anchor="start" style="white-space: pre;" direction="ltr">           owner:</text><text x="0" y="565.1666666666667" font-family="Virgil, Segoe UI Emoji" font-size="13.762386258975821px" fill="#8bd490" text-anchor="start" style="white-space: pre;" direction="ltr">             entity: 'User'</text><text x="0" y="582.4444444444445" font-family="Virgil, Segoe UI Emoji" font-size="13.762386258975821px" fill="#8bd490" text-anchor="start" style="white-space: pre;" direction="ltr">             ...</text><text x="0" y="599.7222222222223" font-family="Virgil, Segoe UI Emoji" font-size="13.762386258975821px" fill="#8bd490" text-anchor="start" style="white-space: pre;" direction="ltr">    </text><text x="0" y="617" font-family="Virgil, Segoe UI Emoji" font-size="13.762386258975821px" fill="#8bd490" text-anchor="start" style="white-space: pre;" direction="ltr">                                                        </text></g><g transform="translate(818.080240285741 396.09702936711847) rotate(0 221 17.5)"><text x="0" y="12.5" font-family="Virgil, Segoe UI Emoji" font-size="13.762386258975821px" fill="#8bd490" text-anchor="start" style="white-space: pre;" direction="ltr">{ runner: (sql, params) -&gt; # should execute the sql with supplied</text><text x="0" y="30" font-family="Virgil, Segoe UI Emoji" font-size="13.762386258975821px" fill="#8bd490" text-anchor="start" style="white-space: pre;" direction="ltr">                             params and return the result }</text></g><g transform="translate(829.2971386503073 787.8494527808879) rotate(0 230.5 77.5)"><text x="0" y="12.222222222222221" font-family="Virgil, Segoe UI Emoji" font-size="13.762386258975821px" fill="#8bd490" text-anchor="start" style="white-space: pre;" direction="ltr">{ getData: () -&gt; # should return a normalised cache as JS-object,</text><text x="0" y="29.444444444444443" font-family="Virgil, Segoe UI Emoji" font-size="13.762386258975821px" fill="#8bd490" text-anchor="start" style="white-space: pre;" direction="ltr">                    eg.:</text><text x="0" y="46.666666666666664" font-family="Virgil, Segoe UI Emoji" font-size="13.762386258975821px" fill="#8bd490" text-anchor="start" style="white-space: pre;" direction="ltr">                        Client:</text><text x="0" y="63.888888888888886" font-family="Virgil, Segoe UI Emoji" font-size="13.762386258975821px" fill="#8bd490" text-anchor="start" style="white-space: pre;" direction="ltr">                           1: {id: 1, name: 'Client 1', archived: false}</text><text x="0" y="81.11111111111111" font-family="Virgil, Segoe UI Emoji" font-size="13.762386258975821px" fill="#8bd490" text-anchor="start" style="white-space: pre;" direction="ltr">                        Project:</text><text x="0" y="98.33333333333333" font-family="Virgil, Segoe UI Emoji" font-size="13.762386258975821px" fill="#8bd490" text-anchor="start" style="white-space: pre;" direction="ltr">                           3: {id: 3, name: 'Project 3', rate: 102, </text><text x="0" y="115.55555555555554" font-family="Virgil, Segoe UI Emoji" font-size="13.762386258975821px" fill="#8bd490" text-anchor="start" style="white-space: pre;" direction="ltr">                              clientId: 1, userId: 8}</text><text x="0" y="132.77777777777777" font-family="Virgil, Segoe UI Emoji" font-size="13.762386258975821px" fill="#8bd490" text-anchor="start" style="white-space: pre;" direction="ltr">                        User:</text><text x="0" y="150" font-family="Virgil, Segoe UI Emoji" font-size="13.762386258975821px" fill="#8bd490" text-anchor="start" style="white-space: pre;" direction="ltr">                           8: {id: 8, name: 'User 8'}}</text></g><g transform="translate(819.8060353639135 496.50280367909716) rotate(0 224 60.5)"><text x="0" y="12.285714285714285" font-family="Virgil, Segoe UI Emoji" font-size="13.762386258975821px" fill="#8bd490" text-anchor="start" style="white-space: pre;" direction="ltr">Example run:</text><text x="0" y="29.57142857142857" font-family="Virgil, Segoe UI Emoji" font-size="13.762386258975821px" fill="#8bd490" text-anchor="start" style="white-space: pre;" direction="ltr"></text><text x="0" y="46.857142857142854" font-family="Virgil, Segoe UI Emoji" font-size="13.762386258975821px" fill="#8bd490" text-anchor="start" style="white-space: pre;" direction="ltr">   SELECT id, "name", archived FROM client WHERE archived = $1</text><text x="0" y="64.14285714285714" font-family="Virgil, Segoe UI Emoji" font-size="13.762386258975821px" fill="#8bd490" text-anchor="start" style="white-space: pre;" direction="ltr">   SELECT id, "name", rate, client_id, user_id FROM project </text><text x="0" y="81.42857142857142" font-family="Virgil, Segoe UI Emoji" font-size="13.762386258975821px" fill="#8bd490" text-anchor="start" style="white-space: pre;" direction="ltr">      WHERE rate &gt; $1 AND client_id = ANY($2)</text><text x="0" y="98.71428571428571" font-family="Virgil, Segoe UI Emoji" font-size="13.762386258975821px" fill="#8bd490" text-anchor="start" style="white-space: pre;" direction="ltr">   SELECT id, "name" FROM "user" WHERE id = ANY($1)</text><text x="0" y="116" font-family="Virgil, Segoe UI Emoji" font-size="13.762386258975821px" fill="#8bd490" text-anchor="start" style="white-space: pre;" direction="ltr"></text></g><g transform="translate(824.4305096925141 657.3524436657242) rotate(0 179 8.5)"><text x="0" y="12" font-family="Virgil, Segoe UI Emoji" font-size="13.762386258975821px" fill="#8bd490" text-anchor="start" style="white-space: pre;" direction="ltr">Runs INSERT, UPDATE or DELETE based on delta</text></g><g transform="translate(477.9974987773762 44.130584960123315) rotate(0 401.5 21.5)"><text x="0" y="14.5" font-family="Virgil, Segoe UI Emoji" font-size="17.012151360928577px" fill="#000000" text-anchor="start" style="white-space: pre;" direction="ltr">- Transforms your hierarchical OO queries to relational/normalised queries</text><text x="0" y="36" font-family="Virgil, Segoe UI Emoji" font-size="17.012151360928577px" fill="#000000" text-anchor="start" style="white-space: pre;" direction="ltr">- Let's you execute the same query towards an SQL-DB and towards a plain JS-object cache</text></g><g stroke-linecap="round"><g transform="translate(626.452940759134 249.14939365542295) rotate(0 -181.8541791373018 -10.711597087418625)"><path d="M0.43 -0.27 C-32.04 1.21, -134.79 15.55, -195.52 9.97 C-256.24 4.39, -335.77 -26.33, -363.93 -33.74 M-0.8 -1.45 C-33.35 0.7, -135.82 16.46, -196.38 11.28 C-256.93 6.1, -336.21 -24.99, -364.14 -32.52" stroke="#8bd490" stroke-width="1" fill="none"></path></g><g transform="translate(626.452940759134 249.14939365542295) rotate(0 -181.8541791373018 -10.711597087418625)"><path d="M-334.61 -33.47 C-342.06 -31.59, -348.84 -32.2, -365.75 -30.54 M-334.61 -33.01 C-341.7 -33.62, -348.87 -33.14, -363.99 -32.78" stroke="#8bd490" stroke-width="1" fill="none"></path></g><g transform="translate(626.452940759134 249.14939365542295) rotate(0 -181.8541791373018 -10.711597087418625)"><path d="M-340.83 -13.91 C-346.97 -16.75, -352.26 -22.06, -365.75 -30.54 M-340.83 -13.46 C-346.45 -18.57, -352.18 -22.6, -363.99 -32.78" stroke="#8bd490" stroke-width="1" fill="none"></path></g></g><g stroke-linecap="round"><g transform="translate(635.1677532431831 166.5980166947311) rotate(0 -175.4507014672531 -35.918879906365646)"><path d="M-0.04 -0.92 C-27 -8.67, -104.09 -34.21, -162.42 -46.23 C-220.74 -58.25, -318.61 -68.41, -349.99 -73.05 M-1.53 1.21 C-28.5 -6.4, -104.65 -32.72, -162.87 -44.9 C-221.09 -57.07, -319.52 -67.04, -350.86 -71.82" stroke="#8bd490" stroke-width="1" fill="none"></path></g><g transform="translate(635.1677532431831 166.5980166947311) rotate(0 -175.4507014672531 -35.918879906365646)"><path d="M-323.12 -76.8 C-329.36 -77.11, -336.14 -76.66, -352.81 -71.68 M-321.67 -78.25 C-331.65 -74.86, -343.21 -73.86, -350.03 -72.21" stroke="#8bd490" stroke-width="1" fill="none"></path></g><g transform="translate(635.1677532431831 166.5980166947311) rotate(0 -175.4507014672531 -35.918879906365646)"><path d="M-325.75 -56.45 C-331.4 -61.73, -337.54 -66.25, -352.81 -71.68 M-324.31 -57.9 C-333.45 -62.15, -344.02 -68.78, -350.03 -72.21" stroke="#8bd490" stroke-width="1" fill="none"></path></g></g><g stroke-linecap="round"><g transform="translate(638.5799276914881 296.4846362499055) rotate(0 -139.56004342134383 37.19427670371192)"><path d="M0.6 -0.44 C-21.87 9, -88.98 43.12, -135.63 55.63 C-182.28 68.14, -255.21 71.7, -279.32 74.61 M-0.55 -1.71 C-22.58 8, -86.9 44.13, -133.43 57.1 C-179.96 70.07, -255.25 73.35, -279.72 76.1" stroke="#8bd490" stroke-width="1" fill="none"></path></g><g transform="translate(638.5799276914881 296.4846362499055) rotate(0 -139.56004342134383 37.19427670371192)"><path d="M-253.23 61.85 C-259.15 67.74, -264.74 69, -281.64 77.91 M-252.08 62.9 C-258.42 66.39, -264.35 69.15, -279.05 75.12" stroke="#8bd490" stroke-width="1" fill="none"></path></g><g transform="translate(638.5799276914881 296.4846362499055) rotate(0 -139.56004342134383 37.19427670371192)"><path d="M-251.49 82.3 C-257.64 83.44, -263.64 79.93, -281.64 77.91 M-250.33 83.34 C-257.22 82.56, -263.51 81.02, -279.05 75.12" stroke="#8bd490" stroke-width="1" fill="none"></path></g></g><g stroke-linecap="round"><g transform="translate(625.5788426744339 437.71169539969446) rotate(0 105.14901172317923 -80.30522025686861)"><path d="M0.91 1.19 C35.71 -14.23, 188.21 -65.83, 207.72 -92.66 C227.23 -119.48, 133.1 -148.38, 117.99 -159.76 M-0.07 0.77 C34.64 -14.97, 187.08 -67.27, 206.64 -94.36 C226.21 -121.46, 132.26 -150.83, 117.29 -161.8" stroke="#8bd490" stroke-width="1" fill="none"></path></g><g transform="translate(625.5788426744339 437.71169539969446) rotate(0 105.14901172317923 -80.30522025686861)"><path d="M149.12 -159.19 C142.15 -158.98, 135.47 -161.23, 116.26 -163.13 M146.43 -157.95 C140.06 -158.99, 132.4 -159.88, 117.67 -162.64" stroke="#8bd490" stroke-width="1" fill="none"></path></g><g transform="translate(625.5788426744339 437.71169539969446) rotate(0 105.14901172317923 -80.30522025686861)"><path d="M140.21 -140.71 C135.14 -144.47, 130.34 -150.63, 116.26 -163.13 M137.51 -139.47 C133.58 -145.32, 128.21 -150.94, 117.67 -162.64" stroke="#8bd490" stroke-width="1" fill="none"></path></g></g><g stroke-linecap="round"><g transform="translate(688.7807854553635 445.85700946405757) rotate(0 56.07368480972832 -15.538896501580439)"><path d="M-0.94 -0.07 C11.04 -2.84, 53.6 -12.14, 72.6 -16.99 C91.61 -21.83, 106.32 -26.95, 113.09 -29.14 M0.76 -1.16 C12.57 -4.26, 53.35 -13.86, 71.99 -18.84 C90.63 -23.81, 105.63 -29.31, 112.59 -31" stroke="#8bd490" stroke-width="1" fill="none"></path></g><g transform="translate(688.7807854553635 445.85700946405757) rotate(0 56.07368480972832 -15.538896501580439)"><path d="M95.35 -17.37 C102.55 -21.98, 109.38 -26.35, 112.51 -29.5 M94.53 -18.38 C100.92 -21.75, 105.37 -24.91, 113.12 -30.75" stroke="#8bd490" stroke-width="1" fill="none"></path></g><g transform="translate(688.7807854553635 445.85700946405757) rotate(0 56.07368480972832 -15.538896501580439)"><path d="M91.26 -31.32 C99.9 -30.86, 108.21 -30.2, 112.51 -29.5 M90.45 -32.34 C98.04 -31.65, 103.69 -30.73, 113.12 -30.75" stroke="#8bd490" stroke-width="1" fill="none"></path></g></g><g stroke-linecap="round"><g transform="translate(709.9180656371996 849.9951541229666) rotate(0 58.26669197005867 -11.07755552550772)"><path d="M0.27 -0.66 C12.3 -3.71, 52.73 -14.04, 72.28 -17.9 C91.83 -21.75, 109.93 -22.89, 117.58 -23.77 M-1.04 1.61 C10.85 -1.31, 51.83 -12.5, 71.49 -16.57 C91.15 -20.63, 109.04 -21.85, 116.93 -22.77" stroke="#8bd490" stroke-width="1" fill="none"></path></g><g transform="translate(709.9180656371996 849.9951541229666) rotate(0 58.26669197005867 -11.07755552550772)"><path d="M95.25 -12.3 C101.96 -15.53, 107.93 -17.63, 116.94 -23.64 M96.34 -12.88 C101.97 -16.48, 110.37 -19.08, 117.62 -23.58" stroke="#8bd490" stroke-width="1" fill="none"></path></g><g transform="translate(709.9180656371996 849.9951541229666) rotate(0 58.26669197005867 -11.07755552550772)"><path d="M93.67 -27.86 C100.92 -26.33, 107.37 -23.65, 116.94 -23.64 M94.76 -28.44 C100.99 -27.03, 109.9 -24.62, 117.62 -23.58" stroke="#8bd490" stroke-width="1" fill="none"></path></g></g><g transform="translate(638.857623654113 245.40056970978083) rotate(0 23.039158486911447 -1.903672933452981)" stroke="none"><path fill="#8bd490" d="M -0.81,-1.81 Q -0.81,-1.81 0.15,-2.33 1.11,-2.85 2.67,-3.30 4.23,-3.76 7.07,-4.18 9.90,-4.61 11.60,-4.72 13.29,-4.84 15.55,-4.82 17.80,-4.81 19.55,-4.89 21.30,-4.98 23.19,-5.04 25.08,-5.10 27.19,-5.11 29.29,-5.12 31.76,-5.14 34.23,-5.16 35.97,-5.28 37.71,-5.40 39.01,-5.52 40.31,-5.64 41.89,-5.78 43.47,-5.92 45.38,-5.05 47.30,-4.17 47.56,-3.93 47.83,-3.68 48.00,-3.37 48.18,-3.05 48.24,-2.70 48.30,-2.34 48.25,-1.98 48.20,-1.63 48.03,-1.31 47.87,-0.98 47.61,-0.73 47.35,-0.48 47.03,-0.32 46.70,-0.17 46.34,-0.12 45.98,-0.08 45.63,-0.15 45.28,-0.22 44.97,-0.41 44.65,-0.59 44.42,-0.86 44.18,-1.13 44.04,-1.46 43.90,-1.80 43.88,-2.16 43.85,-2.52 43.94,-2.87 44.04,-3.22 44.23,-3.52 44.43,-3.82 44.72,-4.04 45.00,-4.26 45.34,-4.38 45.68,-4.50 46.04,-4.51 46.40,-4.51 46.75,-4.40 47.09,-4.29 47.38,-4.08 47.67,-3.87 47.88,-3.57 48.08,-3.27 48.19,-2.93 48.29,-2.58 48.27,-2.22 48.26,-1.86 48.13,-1.52 48.00,-1.19 47.77,-0.91 47.54,-0.63 47.23,-0.44 46.93,-0.25 46.58,-0.17 46.23,-0.08 45.87,-0.12 45.51,-0.15 45.18,-0.30 44.85,-0.44 44.85,-0.44 44.85,-0.44 44.05,-0.99 43.26,-1.53 41.83,-1.70 40.41,-1.86 39.14,-1.91 37.87,-1.97 36.10,-1.92 34.34,-1.87 31.89,-1.73 29.43,-1.59 27.34,-1.43 25.26,-1.27 23.38,-1.16 21.51,-1.04 19.75,-0.95 17.99,-0.85 15.80,-0.63 13.62,-0.42 11.99,-0.28 10.36,-0.14 7.85,0.17 5.35,0.49 4.11,0.77 2.86,1.06 1.84,1.43 0.81,1.81 0.58,1.88 0.35,1.96 0.11,1.97 -0.12,1.99 -0.35,1.94 -0.59,1.90 -0.81,1.80 -1.03,1.70 -1.22,1.55 -1.41,1.40 -1.55,1.21 -1.70,1.03 -1.80,0.81 -1.90,0.59 -1.94,0.35 -1.99,0.11 -1.97,-0.12 -1.96,-0.36 -1.88,-0.58 -1.81,-0.81 -1.69,-1.02 -1.56,-1.23 -1.39,-1.40 -1.22,-1.57 -1.02,-1.69 -0.81,-1.81 -0.81,-1.81 L -0.81,-1.81 Z"></path></g><g transform="translate(620.2369538309003 288.20581133066844) rotate(0 26.630356084322784 -1.2413710968552323)" stroke="none"><path fill="#8bd490" d="M 0.45,-1.80 Q 0.45,-1.80 2.28,-1.33 4.11,-0.85 6.34,-0.51 8.57,-0.17 10.56,0.02 12.54,0.22 20.69,0.26 28.83,0.30 32.96,0.29 37.09,0.28 41.26,-0.88 45.42,-2.05 47.41,-2.81 49.40,-3.58 50.79,-4.56 52.18,-5.55 52.36,-5.69 52.55,-5.84 52.77,-5.92 52.98,-6.00 53.22,-6.01 53.45,-6.01 53.67,-5.94 53.90,-5.88 54.09,-5.74 54.28,-5.60 54.41,-5.41 54.55,-5.23 54.62,-5.00 54.68,-4.78 54.68,-4.55 54.67,-4.31 54.59,-4.09 54.51,-3.87 54.36,-3.69 54.22,-3.51 54.02,-3.39 53.83,-3.26 53.60,-3.20 53.37,-3.15 53.14,-3.17 52.91,-3.19 52.69,-3.28 52.48,-3.37 52.31,-3.53 52.13,-3.68 52.02,-3.88 51.90,-4.09 51.86,-4.32 51.81,-4.55 51.85,-4.78 51.88,-5.01 51.98,-5.22 52.08,-5.43 52.25,-5.59 52.41,-5.76 52.62,-5.86 52.83,-5.96 53.06,-5.99 53.30,-6.03 53.52,-5.98 53.75,-5.94 53.96,-5.82 54.16,-5.71 54.32,-5.53 54.47,-5.36 54.56,-5.15 54.66,-4.93 54.67,-4.70 54.69,-4.47 54.64,-4.24 54.58,-4.01 54.45,-3.82 54.33,-3.62 54.33,-3.62 54.33,-3.62 52.38,-2.29 50.43,-0.97 48.32,-0.12 46.20,0.71 41.67,1.98 37.15,3.24 32.99,3.32 28.83,3.40 20.55,3.44 12.27,3.48 10.21,3.33 8.15,3.18 5.68,2.94 3.22,2.70 1.38,2.25 -0.45,1.80 -0.66,1.72 -0.87,1.64 -1.06,1.51 -1.24,1.38 -1.39,1.22 -1.54,1.05 -1.64,0.85 -1.74,0.65 -1.80,0.43 -1.85,0.21 -1.85,-0.01 -1.85,-0.23 -1.79,-0.45 -1.74,-0.67 -1.63,-0.86 -1.52,-1.06 -1.37,-1.23 -1.22,-1.40 -1.04,-1.52 -0.85,-1.65 -0.64,-1.73 -0.43,-1.81 -0.21,-1.83 0.01,-1.86 0.23,-1.83 0.45,-1.80 0.45,-1.80 L 0.45,-1.80 Z"></path></g><g transform="translate(577.1143019372303 451.7304290796411) rotate(184.94850489852945 26.630356084322784 -1.2413710968552323)" stroke="none"><path fill="#8bd490" d="M 0.45,-1.80 Q 0.45,-1.80 2.28,-1.33 4.11,-0.85 6.34,-0.51 8.57,-0.17 10.56,0.02 12.54,0.22 20.69,0.26 28.83,0.30 32.96,0.29 37.09,0.28 41.26,-0.88 45.42,-2.05 47.41,-2.81 49.40,-3.58 50.79,-4.56 52.18,-5.55 52.36,-5.69 52.55,-5.84 52.77,-5.92 52.98,-6.00 53.22,-6.01 53.45,-6.01 53.67,-5.94 53.90,-5.88 54.09,-5.74 54.28,-5.60 54.41,-5.41 54.55,-5.23 54.62,-5.00 54.68,-4.78 54.68,-4.55 54.67,-4.31 54.59,-4.09 54.51,-3.87 54.36,-3.69 54.22,-3.51 54.02,-3.39 53.83,-3.26 53.60,-3.20 53.37,-3.15 53.14,-3.17 52.91,-3.19 52.69,-3.28 52.48,-3.37 52.31,-3.53 52.13,-3.68 52.02,-3.88 51.90,-4.09 51.86,-4.32 51.81,-4.55 51.85,-4.78 51.88,-5.01 51.98,-5.22 52.08,-5.43 52.25,-5.59 52.41,-5.76 52.62,-5.86 52.83,-5.96 53.06,-5.99 53.30,-6.03 53.52,-5.98 53.75,-5.94 53.96,-5.82 54.16,-5.71 54.32,-5.53 54.47,-5.36 54.56,-5.15 54.66,-4.93 54.67,-4.70 54.69,-4.47 54.64,-4.24 54.58,-4.01 54.45,-3.82 54.33,-3.62 54.33,-3.62 54.33,-3.62 52.38,-2.29 50.43,-0.97 48.32,-0.12 46.20,0.71 41.67,1.98 37.15,3.24 32.99,3.32 28.83,3.40 20.55,3.44 12.27,3.48 10.21,3.33 8.15,3.18 5.68,2.94 3.22,2.70 1.38,2.25 -0.45,1.80 -0.66,1.72 -0.87,1.64 -1.06,1.51 -1.24,1.38 -1.39,1.22 -1.54,1.05 -1.64,0.85 -1.74,0.65 -1.80,0.43 -1.85,0.21 -1.85,-0.01 -1.85,-0.23 -1.79,-0.45 -1.74,-0.67 -1.63,-0.86 -1.52,-1.06 -1.37,-1.23 -1.22,-1.40 -1.04,-1.52 -0.85,-1.65 -0.64,-1.73 -0.43,-1.81 -0.21,-1.83 0.01,-1.86 0.23,-1.83 0.45,-1.80 0.45,-1.80 L 0.45,-1.80 Z"></path></g><g transform="translate(633.216519635208 181.33460290089204) rotate(0 20.22265976431686 -3.0873323126064633)" stroke="none"><path fill="#8bd490" d="M -0.35,-2.00 Q -0.35,-2.00 2.64,-2.44 5.65,-2.87 8.01,-3.14 10.37,-3.42 13.29,-3.98 16.20,-4.53 18.64,-5.11 21.08,-5.69 23.38,-6.14 25.69,-6.59 27.10,-6.97 28.52,-7.36 29.58,-7.60 30.65,-7.83 31.78,-8.08 32.90,-8.33 34.21,-8.33 35.52,-8.33 36.77,-8.31 38.01,-8.29 40.17,-6.95 42.33,-5.61 42.59,-5.26 42.85,-4.91 42.99,-4.49 43.13,-4.07 43.12,-3.63 43.12,-3.19 42.97,-2.78 42.83,-2.36 42.56,-2.01 42.29,-1.67 41.92,-1.43 41.55,-1.18 41.13,-1.07 40.70,-0.96 40.27,-0.99 39.83,-1.01 39.42,-1.18 39.01,-1.35 38.68,-1.64 38.35,-1.92 38.13,-2.30 37.91,-2.68 37.82,-3.11 37.73,-3.54 37.78,-3.98 37.83,-4.42 38.02,-4.81 38.21,-5.21 38.52,-5.52 38.82,-5.84 39.21,-6.04 39.60,-6.24 40.04,-6.31 40.47,-6.38 40.90,-6.30 41.34,-6.22 41.72,-6.01 42.11,-5.80 42.41,-5.48 42.71,-5.16 42.89,-4.76 43.07,-4.36 43.11,-3.92 43.15,-3.48 43.05,-3.05 42.95,-2.63 42.72,-2.25 42.49,-1.88 42.15,-1.60 41.81,-1.32 41.40,-1.16 40.99,-1.00 40.56,-0.98 40.12,-0.96 39.69,-1.09 39.27,-1.21 38.91,-1.46 38.55,-1.71 38.55,-1.71 38.55,-1.71 37.89,-2.44 37.22,-3.17 36.06,-3.39 34.89,-3.60 33.50,-3.84 32.12,-4.09 30.65,-4.10 29.18,-4.12 27.73,-3.92 26.28,-3.72 24.05,-3.23 21.82,-2.75 19.34,-2.08 16.85,-1.41 13.86,-0.73 10.87,-0.05 8.58,0.35 6.29,0.76 3.32,1.38 0.35,2.00 0.10,2.02 -0.13,2.03 -0.37,1.98 -0.61,1.94 -0.84,1.84 -1.06,1.73 -1.25,1.58 -1.45,1.43 -1.60,1.23 -1.75,1.04 -1.85,0.81 -1.95,0.59 -1.99,0.35 -2.03,0.10 -2.02,-0.13 -2.00,-0.38 -1.92,-0.61 -1.85,-0.84 -1.72,-1.05 -1.59,-1.26 -1.42,-1.44 -1.24,-1.61 -1.03,-1.73 -0.82,-1.86 -0.58,-1.93 -0.35,-2.00 -0.35,-2.00 L -0.35,-2.00 Z"></path></g></svg>